<svg xmlns="http://www.w3.org/2000/svg" xmlns:xlink="http://www.w3.org/1999/xlink" width="890" zoomAndPan="magnify" viewBox="0 0 667.5 348.749994" height="465" preserveAspectRatio="xMidYMid meet" version="1.0"><defs><g/><clipPath id="ca80ec7466"><path d="M 0 0.00390625 L 667 0.00390625 L 667 348.496094 L 0 348.496094 Z M 0 0.00390625 " clip-rule="nonzero"/></clipPath><clipPath id="64d79ea3ae"><path d="M 295.726562 187.117188 L 371.417969 187.117188 L 371.417969 262.8125 L 295.726562 262.8125 Z M 295.726562 187.117188 " clip-rule="nonzero"/></clipPath><clipPath id="05ef6de981"><rect x="0" width="427" y="0" height="65"/></clipPath></defs><g clip-path="url(#ca80ec7466)"><path fill="#07569f" d="M 631.914062 33.359375 C 623.324219 13.746094 603.726562 0.00390625 580.976562 0.00390625 L 55.582031 0.00390625 C 24.933594 0.00390625 0 24.941406 0 55.589844 L 0 267.636719 C 0 293.5 17.753906 315.292969 41.714844 321.46875 C 50.828125 337.792969 68.269531 348.832031 88.292969 348.832031 L 613.6875 348.832031 C 643.132812 348.832031 667 324.964844 667 295.519531 L 667 83.472656 C 667 60.429688 652.382812 40.804688 631.914062 33.359375 Z M 631.914062 33.359375 " fill-opacity="1" fill-rule="nonzero"/></g><path fill="#f3eed3" d="M 55.582031 4.546875 L 580.976562 4.546875 C 609.148438 4.546875 632.019531 27.417969 632.019531 55.589844 L 632.019531 267.636719 C 632.019531 295.808594 609.148438 318.679688 580.976562 318.679688 L 55.582031 318.679688 C 27.414062 318.679688 4.542969 295.808594 4.542969 267.636719 L 4.542969 55.589844 C 4.542969 27.417969 27.414062 4.546875 55.582031 4.546875 Z M 55.582031 4.546875 " fill-opacity="1" fill-rule="nonzero"/><g clip-path="url(#64d79ea3ae)"><path fill="#07569f" d="M 333.507812 187.117188 C 354.359375 187.117188 371.265625 204.023438 371.265625 224.902344 C 371.265625 245.753906 354.359375 262.660156 333.507812 262.660156 C 312.628906 262.660156 295.726562 245.753906 295.726562 224.902344 C 295.726562 204.023438 312.628906 187.117188 333.507812 187.117188 Z M 333.507812 188.957031 C 353.347656 188.957031 369.453125 205.035156 369.453125 224.902344 C 369.453125 244.742188 353.347656 260.847656 333.507812 260.847656 C 313.644531 260.847656 297.566406 244.742188 297.566406 224.902344 C 297.566406 205.035156 313.644531 188.957031 333.507812 188.957031 Z M 333.507812 188.957031 " fill-opacity="1" fill-rule="evenodd"/></g><path fill="#07569f" d="M 334.574219 232.421875 L 314.816406 232.421875 C 313.992188 232.421875 313.296875 231.753906 313.296875 230.929688 L 313.296875 203.648438 C 313.296875 202.824219 313.992188 202.128906 314.816406 202.128906 L 330.683594 202.128906 C 330.976562 202.128906 331.214844 202.371094 331.214844 202.664062 L 331.214844 207.304688 C 331.214844 207.410156 331.324219 207.515625 331.429688 207.515625 L 335.535156 207.515625 C 335.828125 207.515625 336.070312 207.757812 336.070312 208.050781 L 336.070312 219.300781 C 336.070312 219.597656 335.828125 219.835938 335.535156 219.835938 L 334.628906 219.835938 L 334.628906 221.488281 L 335.535156 221.488281 C 335.828125 221.488281 336.070312 221.730469 336.070312 222.023438 L 336.070312 224.929688 C 336.070312 225.222656 335.828125 225.460938 335.535156 225.460938 L 332.148438 225.460938 C 331.855469 225.460938 331.617188 225.222656 331.617188 224.929688 L 331.617188 223.835938 L 328.710938 226.289062 L 331.617188 228.714844 L 331.617188 227.621094 C 331.617188 227.328125 331.855469 227.089844 332.148438 227.089844 L 335.535156 227.089844 C 335.828125 227.089844 336.070312 227.328125 336.070312 227.621094 L 336.070312 230.929688 C 336.070312 231.753906 335.402344 232.421875 334.574219 232.421875 Z M 314.816406 203.195312 C 314.683594 203.195312 314.578125 203.25 314.496094 203.332031 C 314.417969 203.410156 314.363281 203.515625 314.363281 203.648438 L 314.363281 230.929688 C 314.363281 231.167969 314.578125 231.355469 314.816406 231.355469 L 334.574219 231.355469 C 334.816406 231.355469 335.003906 231.167969 335.003906 230.929688 L 335.003906 228.183594 L 332.683594 228.183594 L 332.683594 229.863281 C 332.683594 230.074219 332.550781 230.261719 332.363281 230.339844 C 332.175781 230.449219 331.960938 230.421875 331.800781 230.289062 L 327.535156 226.6875 C 327.402344 226.582031 327.347656 226.449219 327.347656 226.289062 C 327.347656 226.128906 327.402344 225.96875 327.535156 225.863281 L 331.800781 222.289062 C 331.960938 222.15625 332.175781 222.128906 332.363281 222.207031 C 332.550781 222.289062 332.683594 222.476562 332.683594 222.6875 L 332.683594 224.394531 L 335.003906 224.394531 L 335.003906 222.527344 L 334.09375 222.527344 C 333.800781 222.527344 333.5625 222.289062 333.5625 221.996094 L 333.5625 219.300781 C 333.5625 219.007812 333.800781 218.769531 334.09375 218.769531 L 335.003906 218.769531 L 335.003906 208.582031 L 331.429688 208.582031 C 330.734375 208.582031 330.148438 207.996094 330.148438 207.304688 L 330.148438 203.195312 Z M 314.816406 203.195312 " fill-opacity="1" fill-rule="evenodd"/><path fill="#07569f" d="M 335.535156 208.582031 L 331.429688 208.582031 C 330.734375 208.582031 330.148438 207.996094 330.148438 207.304688 L 330.148438 202.664062 C 330.148438 202.449219 330.28125 202.265625 330.496094 202.183594 C 330.710938 202.105469 330.921875 202.15625 331.082031 202.316406 L 335.933594 207.675781 C 336.070312 207.835938 336.09375 208.078125 336.015625 208.261719 C 335.933594 208.449219 335.75 208.582031 335.535156 208.582031 Z M 331.214844 204.050781 L 331.214844 207.304688 C 331.214844 207.410156 331.324219 207.515625 331.429688 207.515625 L 334.335938 207.515625 Z M 331.214844 204.050781 " fill-opacity="1" fill-rule="evenodd"/><path fill="#07569f" d="M 332.175781 234.714844 L 312.417969 234.714844 C 311.589844 234.714844 310.925781 234.046875 310.925781 233.222656 L 310.925781 205.945312 C 310.925781 205.117188 311.589844 204.421875 312.417969 204.421875 L 313.832031 204.421875 C 314.125 204.421875 314.363281 204.664062 314.363281 204.957031 L 314.363281 230.929688 C 314.363281 231.167969 314.578125 231.355469 314.816406 231.355469 L 333.136719 231.355469 C 333.429688 231.355469 333.667969 231.59375 333.667969 231.886719 L 333.667969 233.222656 C 333.667969 234.046875 333.003906 234.714844 332.175781 234.714844 Z M 312.417969 205.488281 C 312.175781 205.488281 311.992188 205.703125 311.992188 205.945312 L 311.992188 233.222656 C 311.992188 233.460938 312.175781 233.648438 312.417969 233.648438 L 332.175781 233.648438 C 332.414062 233.648438 332.601562 233.460938 332.601562 233.222656 L 332.601562 232.421875 L 314.816406 232.421875 C 313.992188 232.421875 313.296875 231.753906 313.296875 230.929688 L 313.296875 205.488281 Z M 312.417969 205.488281 " fill-opacity="1" fill-rule="evenodd"/><path fill="#07569f" d="M 354.574219 245.355469 L 334.816406 245.355469 C 333.988281 245.355469 333.320312 244.6875 333.320312 243.859375 L 333.320312 231.886719 C 333.320312 231.59375 333.5625 231.355469 333.855469 231.355469 L 334.546875 231.355469 C 334.789062 231.355469 335.003906 231.167969 335.003906 230.929688 L 335.003906 227.648438 C 335.003906 227.355469 335.242188 227.113281 335.535156 227.113281 L 341 227.113281 L 341 225.460938 L 335.535156 225.460938 C 335.242188 225.460938 335.003906 225.222656 335.003906 224.929688 L 335.003906 222.023438 C 335.003906 221.730469 335.242188 221.488281 335.535156 221.488281 L 343.507812 221.488281 C 343.800781 221.488281 344.042969 221.730469 344.042969 222.023438 L 344.042969 223.117188 L 346.949219 220.664062 L 344.042969 218.210938 L 344.042969 219.300781 C 344.042969 219.597656 343.800781 219.835938 343.507812 219.835938 L 335.535156 219.835938 C 335.242188 219.835938 335.003906 219.597656 335.003906 219.300781 L 335.003906 215.597656 C 335.003906 215.300781 335.242188 215.0625 335.535156 215.0625 L 350.707031 215.0625 C 351 215.0625 351.242188 215.300781 351.242188 215.597656 L 351.242188 220.234375 C 351.242188 220.34375 351.320312 220.449219 351.453125 220.449219 L 355.535156 220.449219 C 355.828125 220.449219 356.066406 220.6875 356.066406 220.980469 L 356.066406 243.859375 C 356.09375 244.6875 355.402344 245.355469 354.574219 245.355469 Z M 334.390625 232.421875 L 334.390625 243.859375 C 334.390625 244.101562 334.574219 244.289062 334.816406 244.289062 L 354.574219 244.289062 C 354.8125 244.289062 355.027344 244.101562 355.027344 243.859375 L 355.027344 221.488281 L 351.453125 221.488281 C 350.761719 221.488281 350.175781 220.929688 350.175781 220.210938 L 350.175781 216.128906 L 336.070312 216.128906 L 336.070312 218.769531 L 342.976562 218.769531 L 342.976562 217.0625 C 342.976562 216.875 343.109375 216.664062 343.292969 216.582031 C 343.480469 216.503906 343.695312 216.53125 343.855469 216.664062 L 348.121094 220.261719 C 348.253906 220.34375 348.308594 220.503906 348.308594 220.664062 C 348.308594 220.824219 348.253906 220.980469 348.121094 221.0625 L 343.855469 224.660156 C 343.695312 224.796875 343.480469 224.820312 343.292969 224.742188 C 343.109375 224.636719 342.976562 224.449219 342.976562 224.261719 L 342.976562 222.554688 L 336.070312 222.554688 L 336.070312 224.394531 L 341.5625 224.394531 C 341.855469 224.394531 342.09375 224.636719 342.09375 224.929688 L 342.09375 227.648438 C 342.09375 227.941406 341.855469 228.183594 341.5625 228.183594 L 336.070312 228.183594 L 336.070312 230.929688 C 336.070312 231.753906 335.402344 232.449219 334.574219 232.449219 L 334.390625 232.449219 Z M 334.390625 232.421875 " fill-opacity="1" fill-rule="evenodd"/><path fill="#07569f" d="M 355.5625 221.488281 L 351.453125 221.488281 C 350.761719 221.488281 350.175781 220.929688 350.175781 220.210938 L 350.175781 215.597656 C 350.175781 215.382812 350.308594 215.167969 350.519531 215.089844 C 350.707031 215.007812 350.949219 215.0625 351.109375 215.25 L 355.933594 220.609375 C 356.09375 220.769531 356.121094 220.980469 356.039062 221.195312 C 355.960938 221.382812 355.773438 221.488281 355.5625 221.488281 Z M 351.242188 216.984375 L 351.242188 220.210938 C 351.242188 220.34375 351.347656 220.421875 351.453125 220.421875 L 354.359375 220.421875 Z M 351.242188 216.984375 " fill-opacity="1" fill-rule="evenodd"/><path fill="#07569f" d="M 352.199219 247.648438 L 332.441406 247.648438 C 331.617188 247.648438 330.921875 246.980469 330.921875 246.152344 L 330.921875 234.179688 C 330.921875 233.886719 331.164062 233.648438 331.457031 233.648438 L 332.175781 233.648438 C 332.414062 233.648438 332.601562 233.460938 332.601562 233.222656 L 332.601562 231.886719 C 332.601562 231.59375 332.84375 231.355469 333.136719 231.355469 L 333.855469 231.355469 C 334.148438 231.355469 334.390625 231.59375 334.390625 231.886719 L 334.390625 243.859375 C 334.390625 244.101562 334.574219 244.289062 334.816406 244.289062 L 353.160156 244.289062 C 353.453125 244.289062 353.695312 244.527344 353.695312 244.820312 L 353.695312 246.152344 C 353.695312 246.980469 353.027344 247.648438 352.199219 247.648438 Z M 331.988281 234.714844 L 331.988281 246.152344 C 331.988281 246.394531 332.203125 246.582031 332.441406 246.582031 L 352.199219 246.582031 C 352.441406 246.582031 352.628906 246.394531 352.628906 246.152344 L 352.628906 245.355469 L 334.816406 245.355469 C 333.988281 245.355469 333.320312 244.6875 333.320312 243.859375 L 333.320312 234.179688 C 333.054688 234.5 332.628906 234.714844 332.175781 234.714844 Z M 331.988281 234.714844 " fill-opacity="1" fill-rule="evenodd"/><path fill="#07569f" d="M 327.667969 205.625 L 316.871094 205.625 C 316.578125 205.625 316.335938 205.382812 316.335938 205.089844 C 316.335938 204.796875 316.578125 204.558594 316.871094 204.558594 L 327.667969 204.558594 C 327.960938 204.558594 328.203125 204.796875 328.203125 205.089844 C 328.203125 205.382812 327.960938 205.625 327.667969 205.625 Z M 327.667969 205.625 " fill-opacity="1" fill-rule="evenodd"/><path fill="#07569f" d="M 327.667969 208.15625 L 316.871094 208.15625 C 316.578125 208.15625 316.335938 207.917969 316.335938 207.625 C 316.335938 207.328125 316.578125 207.089844 316.871094 207.089844 L 327.667969 207.089844 C 327.960938 207.089844 328.203125 207.328125 328.203125 207.625 C 328.203125 207.917969 327.960938 208.15625 327.667969 208.15625 Z M 327.667969 208.15625 " fill-opacity="1" fill-rule="evenodd"/><path fill="#07569f" d="M 326.65625 213.355469 L 317.242188 213.355469 C 316.949219 213.355469 316.710938 213.117188 316.710938 212.824219 C 316.710938 212.53125 316.949219 212.289062 317.242188 212.289062 L 326.65625 212.289062 C 326.949219 212.289062 327.1875 212.53125 327.1875 212.824219 C 327.1875 213.117188 326.949219 213.355469 326.65625 213.355469 Z M 326.65625 213.355469 " fill-opacity="1" fill-rule="evenodd"/><path fill="#07569f" d="M 326.65625 217.4375 L 317.242188 217.4375 C 316.949219 217.4375 316.710938 217.195312 316.710938 216.902344 C 316.710938 216.609375 316.949219 216.371094 317.242188 216.371094 L 326.65625 216.371094 C 326.949219 216.371094 327.1875 216.609375 327.1875 216.902344 C 327.1875 217.195312 326.949219 217.4375 326.65625 217.4375 Z M 326.65625 217.4375 " fill-opacity="1" fill-rule="evenodd"/><path fill="#07569f" d="M 326.65625 221.515625 L 317.242188 221.515625 C 316.949219 221.515625 316.710938 221.277344 316.710938 220.980469 C 316.710938 220.6875 316.949219 220.449219 317.242188 220.449219 L 326.65625 220.449219 C 326.949219 220.449219 327.1875 220.6875 327.1875 220.980469 C 327.1875 221.277344 326.949219 221.515625 326.65625 221.515625 Z M 326.65625 221.515625 " fill-opacity="1" fill-rule="evenodd"/><path fill="#07569f" d="M 326.65625 225.59375 L 317.242188 225.59375 C 316.949219 225.59375 316.710938 225.355469 316.710938 225.0625 C 316.710938 224.769531 316.949219 224.527344 317.242188 224.527344 L 326.65625 224.527344 C 326.949219 224.527344 327.1875 224.769531 327.1875 225.0625 C 327.1875 225.355469 326.949219 225.59375 326.65625 225.59375 Z M 326.65625 225.59375 " fill-opacity="1" fill-rule="evenodd"/><path fill="#07569f" d="M 326.65625 229.675781 L 317.242188 229.675781 C 316.949219 229.675781 316.710938 229.433594 316.710938 229.140625 C 316.710938 228.847656 316.949219 228.609375 317.242188 228.609375 L 326.65625 228.609375 C 326.949219 228.609375 327.1875 228.847656 327.1875 229.140625 C 327.1875 229.433594 326.949219 229.675781 326.65625 229.675781 Z M 326.65625 229.675781 " fill-opacity="1" fill-rule="evenodd"/><path fill="#07569f" d="M 343.507812 224.769531 C 343.429688 224.769531 343.347656 224.769531 343.292969 224.714844 C 343.109375 224.636719 342.976562 224.449219 342.976562 224.234375 L 342.976562 222.554688 L 334.09375 222.554688 C 333.800781 222.554688 333.5625 222.316406 333.5625 222.023438 L 333.5625 219.300781 C 333.5625 219.007812 333.800781 218.769531 334.09375 218.769531 L 342.976562 218.769531 L 342.976562 217.0625 C 342.976562 216.875 343.109375 216.664062 343.292969 216.582031 C 343.480469 216.503906 343.695312 216.53125 343.855469 216.664062 L 348.121094 220.261719 C 348.253906 220.34375 348.308594 220.503906 348.308594 220.664062 C 348.308594 220.824219 348.253906 220.980469 348.121094 221.0625 L 343.855469 224.660156 C 343.75 224.742188 343.640625 224.769531 343.507812 224.769531 Z M 334.628906 221.488281 L 343.507812 221.488281 C 343.800781 221.488281 344.042969 221.730469 344.042969 222.023438 L 344.042969 223.117188 L 346.949219 220.664062 L 344.042969 218.210938 L 344.042969 219.300781 C 344.042969 219.597656 343.800781 219.835938 343.507812 219.835938 L 334.628906 219.835938 Z M 334.628906 221.488281 " fill-opacity="1" fill-rule="evenodd"/><path fill="#07569f" d="M 332.148438 230.394531 C 332.015625 230.394531 331.910156 230.367188 331.800781 230.289062 L 327.535156 226.6875 C 327.402344 226.582031 327.347656 226.449219 327.347656 226.289062 C 327.347656 226.128906 327.402344 225.96875 327.535156 225.863281 L 331.800781 222.289062 C 331.960938 222.15625 332.175781 222.128906 332.363281 222.207031 C 332.550781 222.289062 332.683594 222.476562 332.683594 222.6875 L 332.683594 224.394531 L 341.5625 224.394531 C 341.855469 224.394531 342.09375 224.636719 342.09375 224.929688 L 342.09375 227.621094 C 342.09375 227.914062 341.855469 228.15625 341.5625 228.15625 L 332.683594 228.15625 L 332.683594 229.863281 C 332.683594 230.074219 332.550781 230.261719 332.363281 230.339844 C 332.308594 230.394531 332.230469 230.394531 332.148438 230.394531 Z M 328.710938 226.289062 L 331.617188 228.714844 L 331.617188 227.621094 C 331.617188 227.328125 331.855469 227.089844 332.148438 227.089844 L 341.027344 227.089844 L 341.027344 225.460938 L 332.148438 225.460938 C 331.855469 225.460938 331.617188 225.222656 331.617188 224.929688 L 331.617188 223.835938 Z M 328.710938 226.289062 " fill-opacity="1" fill-rule="evenodd"/><path fill="#07569f" d="M 353.242188 230.792969 L 339.988281 230.792969 C 339.695312 230.792969 339.453125 230.554688 339.453125 230.261719 C 339.453125 229.96875 339.695312 229.726562 339.988281 229.726562 L 353.242188 229.726562 C 353.535156 229.726562 353.773438 229.96875 353.773438 230.261719 C 353.773438 230.554688 353.535156 230.792969 353.242188 230.792969 Z M 353.242188 230.792969 " fill-opacity="1" fill-rule="evenodd"/><path fill="#07569f" d="M 353.242188 233.78125 L 339.988281 233.78125 C 339.695312 233.78125 339.453125 233.542969 339.453125 233.25 C 339.453125 232.953125 339.695312 232.714844 339.988281 232.714844 L 353.242188 232.714844 C 353.535156 232.714844 353.773438 232.953125 353.773438 233.25 C 353.773438 233.542969 353.535156 233.78125 353.242188 233.78125 Z M 353.242188 233.78125 " fill-opacity="1" fill-rule="evenodd"/><path fill="#07569f" d="M 353.242188 236.769531 L 339.988281 236.769531 C 339.695312 236.769531 339.453125 236.527344 339.453125 236.234375 C 339.453125 235.941406 339.695312 235.703125 339.988281 235.703125 L 353.242188 235.703125 C 353.535156 235.703125 353.773438 235.941406 353.773438 236.234375 C 353.773438 236.527344 353.535156 236.769531 353.242188 236.769531 Z M 353.242188 236.769531 " fill-opacity="1" fill-rule="evenodd"/><path fill="#07569f" d="M 353.242188 239.753906 L 339.988281 239.753906 C 339.695312 239.753906 339.453125 239.515625 339.453125 239.222656 C 339.453125 238.925781 339.695312 238.6875 339.988281 238.6875 L 353.242188 238.6875 C 353.535156 238.6875 353.773438 238.925781 353.773438 239.222656 C 353.773438 239.515625 353.535156 239.753906 353.242188 239.753906 Z M 353.242188 239.753906 " fill-opacity="1" fill-rule="evenodd"/><path fill="#07569f" d="M 353.242188 242.742188 L 339.988281 242.742188 C 339.695312 242.742188 339.453125 242.5 339.453125 242.207031 C 339.453125 241.914062 339.695312 241.675781 339.988281 241.675781 L 353.242188 241.675781 C 353.535156 241.675781 353.773438 241.914062 353.773438 242.207031 C 353.773438 242.5 353.535156 242.742188 353.242188 242.742188 Z M 353.242188 242.742188 " fill-opacity="1" fill-rule="evenodd"/><g transform="matrix(1, 0, 0, 1, 120, 72)"><g clip-path="url(#05ef6de981)"><g fill="#07569f" fill-opacity="1"><g transform="translate(1.032426, 49.791663)"><g><path d="M 4.546875 0 L 4.546875 -35.359375 L 7.671875 -35.359375 L 7.671875 0 Z M 4.546875 0 "/></g></g></g><g fill="#07569f" fill-opacity="1"><g transform="translate(13.255326, 49.791663)"><g><path d="M 20.609375 -7.125 L 7.578125 -30.203125 L 7.578125 0 L 4.546875 0 L 4.546875 -35.359375 L 8.390625 -35.359375 L 21.921875 -10.8125 L 35.609375 -35.359375 L 39.09375 -35.359375 L 39.09375 0 L 36.0625 0 L 36.0625 -30.203125 L 23.03125 -7.125 Z M 20.609375 -7.125 "/></g></g></g><g fill="#07569f" fill-opacity="1"><g transform="translate(56.944615, 49.791663)"><g><path d="M 27.28125 0 L 23.640625 -9.796875 L 7.828125 -9.796875 L 4.140625 0 L 0.90625 0 L 14.1875 -35.359375 L 17.421875 -35.359375 L 30.609375 0 Z M 22.734375 -12.484375 L 15.703125 -31.46875 L 8.6875 -12.484375 Z M 22.734375 -12.484375 "/></g></g></g><g fill="#07569f" fill-opacity="1"><g transform="translate(88.512025, 49.791663)"><g><path d="M 25.375 -2.578125 C 23.445312 -0.523438 20.441406 0.5 16.359375 0.5 C 12.285156 0.5 9.113281 -0.59375 6.84375 -2.78125 C 4.570312 -4.96875 3.4375 -8.132812 3.4375 -12.28125 L 3.4375 -23.03125 C 3.4375 -27.207031 4.585938 -30.390625 6.890625 -32.578125 C 9.203125 -34.765625 12.378906 -35.859375 16.421875 -35.859375 C 20.023438 -35.859375 22.828125 -34.984375 24.828125 -33.234375 C 26.828125 -31.484375 27.976562 -28.976562 28.28125 -25.71875 L 25.3125 -25.71875 C 24.9375 -28.269531 24.023438 -30.148438 22.578125 -31.359375 C 21.128906 -32.578125 19.039062 -33.1875 16.3125 -33.1875 C 13.113281 -33.1875 10.6875 -32.289062 9.03125 -30.5 C 7.382812 -28.71875 6.5625 -26.265625 6.5625 -23.140625 L 6.5625 -12.171875 C 6.5625 -9.035156 7.382812 -6.582031 9.03125 -4.8125 C 10.6875 -3.050781 13.164062 -2.171875 16.46875 -2.171875 C 22.425781 -2.171875 25.40625 -5.335938 25.40625 -11.671875 L 25.40625 -14.703125 L 16.015625 -14.703125 L 16.015625 -17.375 L 28.28125 -17.375 L 28.28125 -12.125 C 28.28125 -7.8125 27.3125 -4.628906 25.375 -2.578125 Z M 25.375 -2.578125 "/></g></g></g><g fill="#07569f" fill-opacity="1"><g transform="translate(119.826897, 49.791663)"><g><path d="M 4.546875 0 L 4.546875 -35.359375 L 26.46875 -35.359375 L 26.46875 -32.6875 L 7.671875 -32.6875 L 7.671875 -19.65625 L 23.34375 -19.65625 L 23.34375 -17.03125 L 7.671875 -17.03125 L 7.671875 -2.671875 L 26.46875 -2.671875 L 26.46875 0 Z M 4.546875 0 "/></g></g></g><g fill="#07569f" fill-opacity="1"><g transform="translate(147.707233, 49.791663)"><g/></g></g><g fill="#07569f" fill-opacity="1"><g transform="translate(160.637243, 49.791663)"><g><path d="M 16.21875 0.5 C 12.238281 0.5 9.113281 -0.59375 6.84375 -2.78125 C 4.570312 -4.96875 3.4375 -8.132812 3.4375 -12.28125 L 3.4375 -23.03125 C 3.4375 -27.175781 4.582031 -30.347656 6.875 -32.546875 C 9.164062 -34.753906 12.28125 -35.859375 16.21875 -35.859375 C 19.851562 -35.859375 22.695312 -34.835938 24.75 -32.796875 C 26.800781 -30.765625 28 -28.015625 28.34375 -24.546875 L 25.359375 -24.546875 C 24.648438 -30.304688 21.632812 -33.1875 16.3125 -33.1875 C 13.113281 -33.1875 10.6875 -32.289062 9.03125 -30.5 C 7.382812 -28.71875 6.5625 -26.265625 6.5625 -23.140625 L 6.5625 -12.171875 C 6.5625 -9.035156 7.367188 -6.582031 8.984375 -4.8125 C 10.609375 -3.050781 13.003906 -2.171875 16.171875 -2.171875 C 21.859375 -2.171875 24.921875 -5.050781 25.359375 -10.8125 L 28.34375 -10.8125 C 28.132812 -7.207031 26.960938 -4.421875 24.828125 -2.453125 C 22.691406 -0.484375 19.820312 0.5 16.21875 0.5 Z M 16.21875 0.5 "/></g></g></g><g fill="#07569f" fill-opacity="1"><g transform="translate(191.093478, 49.791663)"><g><path d="M 25.96875 -2.78125 C 23.644531 -0.59375 20.460938 0.5 16.421875 0.5 C 12.378906 0.5 9.203125 -0.59375 6.890625 -2.78125 C 4.585938 -4.96875 3.4375 -8.132812 3.4375 -12.28125 L 3.4375 -23.03125 C 3.4375 -27.207031 4.585938 -30.390625 6.890625 -32.578125 C 9.203125 -34.765625 12.378906 -35.859375 16.421875 -35.859375 C 20.460938 -35.859375 23.644531 -34.765625 25.96875 -32.578125 C 28.289062 -30.390625 29.453125 -27.222656 29.453125 -23.078125 L 29.453125 -12.328125 C 29.453125 -8.148438 28.289062 -4.96875 25.96875 -2.78125 Z M 23.78125 -30.53125 C 22.132812 -32.300781 19.675781 -33.1875 16.40625 -33.1875 C 13.144531 -33.1875 10.6875 -32.289062 9.03125 -30.5 C 7.382812 -28.71875 6.5625 -26.265625 6.5625 -23.140625 L 6.5625 -12.171875 C 6.5625 -9.035156 7.382812 -6.582031 9.03125 -4.8125 C 10.6875 -3.050781 13.144531 -2.171875 16.40625 -2.171875 C 19.675781 -2.171875 22.132812 -3.0625 23.78125 -4.84375 C 25.4375 -6.632812 26.265625 -9.09375 26.265625 -12.21875 L 26.265625 -23.1875 C 26.265625 -26.320312 25.4375 -28.769531 23.78125 -30.53125 Z M 23.78125 -30.53125 "/></g></g></g><g fill="#07569f" fill-opacity="1"><g transform="translate(223.923579, 49.791663)"><g><path d="M 25.40625 0 L 7.578125 -30.65625 L 7.578125 0 L 4.546875 0 L 4.546875 -35.359375 L 8.234375 -35.359375 L 26.0625 -4.703125 L 26.0625 -35.359375 L 29.09375 -35.359375 L 29.09375 0 Z M 25.40625 0 "/></g></g></g><g fill="#07569f" fill-opacity="1"><g transform="translate(257.561811, 49.791663)"><g><path d="M 16.46875 0 L 13.078125 0 L 0.859375 -35.359375 L 4.25 -35.359375 L 14.90625 -3.84375 L 25.453125 -35.359375 L 28.6875 -35.359375 Z M 16.46875 0 "/></g></g></g><g fill="#07569f" fill-opacity="1"><g transform="translate(287.058398, 49.791663)"><g><path d="M 4.546875 0 L 4.546875 -35.359375 L 26.46875 -35.359375 L 26.46875 -32.6875 L 7.671875 -32.6875 L 7.671875 -19.65625 L 23.34375 -19.65625 L 23.34375 -17.03125 L 7.671875 -17.03125 L 7.671875 -2.671875 L 26.46875 -2.671875 L 26.46875 0 Z M 4.546875 0 "/></g></g></g><g fill="#07569f" fill-opacity="1"><g transform="translate(314.938724, 49.791663)"><g><path d="M 7.671875 -14.59375 L 7.671875 0 L 4.546875 0 L 4.546875 -35.359375 L 13.59375 -35.359375 C 17.90625 -35.359375 21.035156 -34.566406 22.984375 -32.984375 C 24.941406 -31.398438 25.921875 -29.078125 25.921875 -26.015625 L 25.921875 -23.890625 C 25.921875 -21.566406 25.203125 -19.628906 23.765625 -18.078125 C 22.335938 -16.535156 20.222656 -15.523438 17.421875 -15.046875 L 27.171875 0 L 23.6875 0 L 14.25 -14.59375 Z M 13.59375 -32.6875 L 7.671875 -32.6875 L 7.671875 -17.28125 L 13.640625 -17.28125 C 16.671875 -17.28125 18.953125 -17.867188 20.484375 -19.046875 C 22.015625 -20.222656 22.78125 -21.851562 22.78125 -23.9375 L 22.78125 -25.96875 C 22.78125 -30.445312 19.71875 -32.6875 13.59375 -32.6875 Z M 13.59375 -32.6875 "/></g></g></g><g fill="#07569f" fill-opacity="1"><g transform="translate(343.677686, 49.791663)"><g><path d="M 25.109375 -32.6875 L 14.453125 -32.6875 L 14.453125 0 L 11.3125 0 L 11.3125 -32.6875 L 0.609375 -32.6875 L 0.609375 -35.359375 L 25.109375 -35.359375 Z M 25.109375 -32.6875 "/></g></g></g><g fill="#07569f" fill-opacity="1"><g transform="translate(369.335683, 49.791663)"><g><path d="M 4.546875 0 L 4.546875 -35.359375 L 26.46875 -35.359375 L 26.46875 -32.6875 L 7.671875 -32.6875 L 7.671875 -19.65625 L 23.34375 -19.65625 L 23.34375 -17.03125 L 7.671875 -17.03125 L 7.671875 -2.671875 L 26.46875 -2.671875 L 26.46875 0 Z M 4.546875 0 "/></g></g></g><g fill="#07569f" fill-opacity="1"><g transform="translate(397.216009, 49.791663)"><g><path d="M 7.671875 -14.59375 L 7.671875 0 L 4.546875 0 L 4.546875 -35.359375 L 13.59375 -35.359375 C 17.90625 -35.359375 21.035156 -34.566406 22.984375 -32.984375 C 24.941406 -31.398438 25.921875 -29.078125 25.921875 -26.015625 L 25.921875 -23.890625 C 25.921875 -21.566406 25.203125 -19.628906 23.765625 -18.078125 C 22.335938 -16.535156 20.222656 -15.523438 17.421875 -15.046875 L 27.171875 0 L 23.6875 0 L 14.25 -14.59375 Z M 13.59375 -32.6875 L 7.671875 -32.6875 L 7.671875 -17.28125 L 13.640625 -17.28125 C 16.671875 -17.28125 18.953125 -17.867188 20.484375 -19.046875 C 22.015625 -20.222656 22.78125 -21.851562 22.78125 -23.9375 L 22.78125 -25.96875 C 22.78125 -30.445312 19.71875 -32.6875 13.59375 -32.6875 Z M 13.59375 -32.6875 "/></g></g></g></g></g></svg>